<svg width="24" height="24" viewBox="0 0 24 24" fill="none" xmlns="http://www.w3.org/2000/svg">
<path d="M12 16V13M12 13V10M12 13H9M12 13H15M3 6V16.8C3 17.92 3 18.48 3.218 18.908C3.40974 19.2843 3.71569 19.5903 4.092 19.782C4.519 20 5.079 20 6.197 20H17.803C18.921 20 19.48 20 19.907 19.782C20.284 19.59 20.59 19.284 20.782 18.908C21 18.48 21 17.92 21 16.8V9.2C21 8.08 21 7.52 20.782 7.092C20.5903 6.71569 20.2843 6.40974 19.908 6.218C19.48 6 18.92 6 17.8 6H12M3 6H12M3 6C3 5.46957 3.21071 4.96086 3.58579 4.58579C3.96086 4.21071 4.46957 4 5 4H8.675C9.164 4 9.409 4 9.639 4.055C9.84433 4.105 10.037 4.185 10.217 4.295C10.419 4.419 10.592 4.592 10.937 4.938L12 6" stroke="black" stroke-width="2" stroke-linecap="round" stroke-linejoin="round"/>
</svg>
