<svg width="28" height="28" viewBox="0 0 28 28" fill="none" xmlns="http://www.w3.org/2000/svg">
<rect width="28" height="28" rx="8" fill="#F5F5F5"/>
<path d="M19.4166 20.667C19.4166 20.7775 19.3727 20.8835 19.2945 20.9616C19.2164 21.0398 19.1104 21.0837 18.9999 21.0837H14.2233C13.9848 21.541 13.6823 21.9619 13.3249 22.3337H18.9999C19.4419 22.3337 19.8659 22.1581 20.1784 21.8455C20.491 21.5329 20.6666 21.109 20.6666 20.667V12.1903C20.6665 11.7483 20.4908 11.3245 20.1783 11.012L15.3208 6.15533L15.2799 6.12199L15.2499 6.09699C15.1927 6.04274 15.1317 5.99261 15.0674 5.94699C15.0458 5.93376 15.0235 5.92153 15.0008 5.91033L14.9608 5.89033L14.9191 5.86616C14.8741 5.84033 14.8283 5.81366 14.7808 5.79366C14.6147 5.7277 14.4391 5.68887 14.2608 5.67866C14.2441 5.67755 14.2277 5.6756 14.2116 5.67283L14.1433 5.66699H8.99992C8.55789 5.66699 8.13397 5.84259 7.82141 6.15515C7.50885 6.46771 7.33325 6.89163 7.33325 7.33366V13.582C7.73431 13.4151 8.15399 13.297 8.58325 13.2303V7.33366C8.58325 7.22315 8.62715 7.11717 8.70529 7.03903C8.78343 6.96089 8.88941 6.91699 8.99992 6.91699H13.9999V10.667C13.9999 11.109 14.1755 11.5329 14.4881 11.8455C14.8006 12.1581 15.2246 12.3337 15.6666 12.3337H19.4166V20.667ZM15.2499 7.85116L18.4816 11.0837H15.6666C15.5561 11.0837 15.4501 11.0398 15.372 10.9616C15.2938 10.8835 15.2499 10.7775 15.2499 10.667V7.85116ZM13.9999 18.5837C13.9999 19.1856 13.8814 19.7815 13.651 20.3376C13.4207 20.8937 13.0831 21.399 12.6575 21.8246C12.2319 22.2502 11.7266 22.5878 11.1706 22.8181C10.6145 23.0484 10.0185 23.167 9.41658 23.167C8.81469 23.167 8.2187 23.0484 7.66262 22.8181C7.10654 22.5878 6.60128 22.2502 6.17568 21.8246C5.75008 21.399 5.41247 20.8937 5.18214 20.3376C4.9518 19.7815 4.83325 19.1856 4.83325 18.5837C4.83325 17.3681 5.31614 16.2023 6.17568 15.3428C7.03522 14.4832 8.20101 14.0003 9.41658 14.0003C10.6322 14.0003 11.7979 14.4832 12.6575 15.3428C13.517 16.2023 13.9999 17.3681 13.9999 18.5837ZM9.41658 15.667C9.30608 15.667 9.2001 15.7109 9.12196 15.789C9.04382 15.8672 8.99992 15.9732 8.99992 16.0837V19.417C8.99992 19.5275 9.04382 19.6335 9.12196 19.7116C9.2001 19.7898 9.30608 19.8337 9.41658 19.8337C9.52709 19.8337 9.63307 19.7898 9.71121 19.7116C9.78935 19.6335 9.83325 19.5275 9.83325 19.417V16.0837C9.83325 15.9732 9.78935 15.8672 9.71121 15.789C9.63307 15.7109 9.52709 15.667 9.41658 15.667ZM9.41658 21.6045C9.55472 21.6045 9.68719 21.5496 9.78487 21.4519C9.88254 21.3543 9.93742 21.2218 9.93742 21.0837C9.93742 20.9455 9.88254 20.813 9.78487 20.7154C9.68719 20.6177 9.55472 20.5628 9.41658 20.5628C9.27845 20.5628 9.14598 20.6177 9.0483 20.7154C8.95063 20.813 8.89575 20.9455 8.89575 21.0837C8.89575 21.2218 8.95063 21.3543 9.0483 21.4519C9.14598 21.5496 9.27845 21.6045 9.41658 21.6045Z" fill="#FA8C16"/>
</svg>
