<svg width="32" height="32" viewBox="0 0 32 32" fill="none" xmlns="http://www.w3.org/2000/svg">
<rect width="32" height="32" rx="8" fill="#F5F5F5"/>
<path d="M8 8C8 7.46957 8.21071 6.96086 8.58579 6.58579C8.96086 6.21071 9.46957 6 10 6H18C18.2652 6.00006 18.5195 6.10545 18.707 6.293L23.707 11.293C23.8946 11.4805 23.9999 11.7348 24 12V24C24 24.5304 23.7893 25.0391 23.4142 25.4142C23.0391 25.7893 22.5304 26 22 26H10C9.46957 26 8.96086 25.7893 8.58579 25.4142C8.21071 25.0391 8 24.5304 8 24V8ZM21.586 12L18 8.414V12H21.586ZM16 8H10V24H22V14H17C16.7348 14 16.4804 13.8946 16.2929 13.7071C16.1054 13.5196 16 13.2652 16 13V8ZM19.707 16.293C19.8945 16.4805 19.9998 16.7348 19.9998 17C19.9998 17.2652 19.8945 17.5195 19.707 17.707L15.707 21.707C15.5195 21.8945 15.2652 21.9998 15 21.9998C14.7348 21.9998 14.4805 21.8945 14.293 21.707L12.293 19.707C12.1975 19.6148 12.1213 19.5044 12.0689 19.3824C12.0165 19.2604 11.9889 19.1292 11.9877 18.9964C11.9866 18.8636 12.0119 18.7319 12.0622 18.609C12.1125 18.4861 12.1867 18.3745 12.2806 18.2806C12.3745 18.1867 12.4861 18.1125 12.609 18.0622C12.7319 18.0119 12.8636 17.9866 12.9964 17.9877C13.1292 17.9889 13.2604 18.0165 13.3824 18.0689C13.5044 18.1213 13.6148 18.1975 13.707 18.293L15 19.586L18.293 16.293C18.4805 16.1055 18.7348 16.0002 19 16.0002C19.2652 16.0002 19.5195 16.1055 19.707 16.293Z" fill="#14AE5C"/>
</svg>
