<svg width="16" height="16" viewBox="0 0 16 16" fill="none" xmlns="http://www.w3.org/2000/svg">
<path d="M6.66674 10.6667H9.33341C9.50333 10.6669 9.66676 10.7319 9.79032 10.8486C9.91388 10.9652 9.98823 11.1246 9.99819 11.2943C10.0081 11.4639 9.95296 11.6309 9.8439 11.7612C9.73484 11.8915 9.58014 11.9753 9.41141 11.9953L9.33341 12H6.66674C6.49682 11.9998 6.33339 11.9347 6.20983 11.8181C6.08627 11.7015 6.01192 11.542 6.00196 11.3724C5.992 11.2028 6.04719 11.0357 6.15625 10.9054C6.26531 10.7751 6.42001 10.6914 6.58874 10.6713L6.66674 10.6667ZM5.33341 7.33333H10.6667C10.8367 7.33352 11.0001 7.39859 11.1237 7.51523C11.2472 7.63188 11.3216 7.7913 11.3315 7.96093C11.3415 8.13056 11.2863 8.29759 11.1772 8.42789C11.0682 8.55819 10.9135 8.64193 10.7447 8.662L10.6667 8.66667H5.33341C5.16349 8.66648 5.00005 8.60141 4.8765 8.48477C4.75294 8.36812 4.67859 8.2087 4.66863 8.03907C4.65867 7.86944 4.71386 7.70241 4.82292 7.57211C4.93198 7.44181 5.08668 7.35807 5.25541 7.338L5.33341 7.33333ZM3.33341 4H12.6667C12.8367 4.00019 13.0001 4.06525 13.1237 4.1819C13.2472 4.29855 13.3216 4.45797 13.3315 4.6276C13.3415 4.79722 13.2863 4.96425 13.1772 5.09455C13.0682 5.22486 12.9135 5.3086 12.7447 5.32867L12.6667 5.33333H3.33341C3.16349 5.33315 3.00005 5.26808 2.8765 5.15143C2.75294 5.03479 2.67859 4.87536 2.66863 4.70574C2.65867 4.53611 2.71386 4.36908 2.82292 4.23878C2.93198 4.10848 3.08668 4.02474 3.25541 4.00467L3.33341 4Z" fill="#333333"/>
</svg>
