<svg width="20" height="20" viewBox="0 0 20 20" fill="none" xmlns="http://www.w3.org/2000/svg">
<g opacity="0.7">
<path opacity="0.2" d="M16.25 6.875V8.75H5.45078C5.3196 8.74999 5.19174 8.79126 5.08532 8.86796C4.97889 8.94465 4.8993 9.05289 4.85781 9.17734L2.5 16.25V5C2.5 4.83424 2.56585 4.67527 2.68306 4.55806C2.80027 4.44085 2.95924 4.375 3.125 4.375H7.29141C7.42664 4.375 7.55822 4.41886 7.66641 4.5L10 6.25H15.625C15.7908 6.25 15.9497 6.31585 16.0669 6.43306C16.1842 6.55027 16.25 6.70924 16.25 6.875Z" fill="#343330"/>
<path d="M19.1406 8.64375C19.0246 8.48292 18.872 8.352 18.6954 8.2618C18.5188 8.1716 18.3233 8.12471 18.125 8.125H16.875V6.875C16.875 6.54348 16.7433 6.22554 16.5089 5.99112C16.2745 5.7567 15.9565 5.625 15.625 5.625H10.2086L8.04219 4C7.82545 3.83842 7.56252 3.75078 7.29219 3.75H3.125C2.79348 3.75 2.47554 3.8817 2.24112 4.11612C2.0067 4.35054 1.875 4.66848 1.875 5V16.25C1.875 16.4158 1.94085 16.5747 2.05806 16.6919C2.17527 16.8092 2.33424 16.875 2.5 16.875H16.4922C16.6234 16.875 16.7512 16.8337 16.8577 16.757C16.9641 16.6803 17.0437 16.5721 17.0852 16.4477L19.3109 9.77031C19.3735 9.58243 19.3907 9.38238 19.3611 9.18657C19.3315 8.99076 19.256 8.80474 19.1406 8.64375ZM7.29219 5L9.625 6.75C9.73318 6.83114 9.86477 6.875 10 6.875H15.625V8.125H5.45078C5.18842 8.12498 4.9327 8.20752 4.71985 8.36091C4.507 8.51431 4.34782 8.73079 4.26484 8.97969L3.125 12.3984V5H7.29219ZM16.0422 15.625H3.36719L5.45078 9.375H18.125L16.0422 15.625Z" fill="#343330"/>
</g>
</svg>
