<svg width="36" height="36" viewBox="0 0 36 36" fill="none" xmlns="http://www.w3.org/2000/svg">
<path fill-rule="evenodd" clip-rule="evenodd" d="M16.6256 22.6H18.3256V20.9H16.6256V22.6ZM17.4756 9C12.7836 9 8.97559 12.808 8.97559 17.5C8.97559 22.192 12.7836 26 17.4756 26C22.1676 26 25.9756 22.192 25.9756 17.5C25.9756 12.808 22.1676 9 17.4756 9ZM17.4756 24.3C13.7271 24.3 10.6756 21.2485 10.6756 17.5C10.6756 13.7515 13.7271 10.7 17.4756 10.7C21.2241 10.7 24.2756 13.7515 24.2756 17.5C24.2756 21.2485 21.2241 24.3 17.4756 24.3ZM17.4756 12.4C15.5971 12.4 14.0756 13.9215 14.0756 15.8H15.7756C15.7756 14.865 16.5406 14.1 17.4756 14.1C18.4106 14.1 19.1756 14.865 19.1756 15.8C19.1756 17.5 16.6256 17.2875 16.6256 20.05H18.3256C18.3256 18.1375 20.8756 17.925 20.8756 15.8C20.8756 13.9215 19.3541 12.4 17.4756 12.4Z" fill="white"/>
</svg>
