<svg width="20" height="21" viewBox="0 0 20 21" fill="none" xmlns="http://www.w3.org/2000/svg">
<g opacity="0.7">
<path d="M17.0003 9.87535C17.0003 10.0411 16.9345 10.2001 16.8173 10.3173C16.7001 10.4345 16.5411 10.5003 16.3753 10.5003H9.50035C9.33459 10.5003 9.17562 10.4345 9.05841 10.3173C8.9412 10.2001 8.87535 10.0411 8.87535 9.87535C8.87535 9.70959 8.9412 9.55062 9.05841 9.43341C9.17562 9.3162 9.33459 9.25035 9.50035 9.25035H16.3753C16.5411 9.25035 16.7001 9.3162 16.8173 9.43341C16.9345 9.55062 17.0003 9.70959 17.0003 9.87535ZM9.50035 5.50035H16.3753C16.5411 5.50035 16.7001 5.4345 16.8173 5.31729C16.9345 5.20008 17.0003 5.04111 17.0003 4.87535C17.0003 4.70959 16.9345 4.55062 16.8173 4.43341C16.7001 4.3162 16.5411 4.25035 16.3753 4.25035H9.50035C9.33459 4.25035 9.17562 4.3162 9.05841 4.43341C8.9412 4.55062 8.87535 4.70959 8.87535 4.87535C8.87535 5.04111 8.9412 5.20008 9.05841 5.31729C9.17562 5.4345 9.33459 5.50035 9.50035 5.50035ZM16.3753 14.2503H9.50035C9.33459 14.2503 9.17562 14.3162 9.05841 14.4334C8.9412 14.5506 8.87535 14.7096 8.87535 14.8753C8.87535 15.0411 8.9412 15.2001 9.05841 15.3173C9.17562 15.4345 9.33459 15.5003 9.50035 15.5003H16.3753C16.5411 15.5003 16.7001 15.4345 16.8173 15.3173C16.9345 15.2001 17.0003 15.0411 17.0003 14.8753C17.0003 14.7096 16.9345 14.5506 16.8173 14.4334C16.7001 14.3162 16.5411 14.2503 16.3753 14.2503ZM5.93316 3.18316L3.87535 5.24175L3.06754 4.43316C2.95026 4.31588 2.7912 4.25 2.62535 4.25C2.4595 4.25 2.30044 4.31588 2.18316 4.43316C2.06588 4.55044 2 4.7095 2 4.87535C2 5.0412 2.06588 5.20026 2.18316 5.31754L3.43316 6.56754C3.49121 6.62565 3.56014 6.67174 3.63601 6.7032C3.71188 6.73465 3.79321 6.75084 3.87535 6.75084C3.95748 6.75084 4.03881 6.73465 4.11469 6.7032C4.19056 6.67174 4.25949 6.62565 4.31753 6.56754L6.81754 4.06753C6.93481 3.95026 7.00069 3.7912 7.00069 3.62535C7.00069 3.4595 6.93481 3.30044 6.81754 3.18316C6.70026 3.06588 6.5412 3 6.37535 3C6.2095 3 6.05044 3.06588 5.93316 3.18316ZM5.93316 8.18316L3.87535 10.2418L3.06754 9.43316C2.95026 9.31588 2.7912 9.25 2.62535 9.25C2.4595 9.25 2.30044 9.31588 2.18316 9.43316C2.06588 9.55044 2 9.7095 2 9.87535C2 9.95747 2.01618 10.0388 2.0476 10.1147C2.07903 10.1905 2.12509 10.2595 2.18316 10.3175L3.43316 11.5675C3.49121 11.6256 3.56014 11.6717 3.63601 11.7032C3.71188 11.7347 3.79321 11.7508 3.87535 11.7508C3.95748 11.7508 4.03881 11.7347 4.11469 11.7032C4.19056 11.6717 4.25949 11.6256 4.31753 11.5675L6.81754 9.06754C6.93481 8.95026 7.00069 8.7912 7.00069 8.62535C7.00069 8.4595 6.93481 8.30044 6.81754 8.18316C6.70026 8.06588 6.5412 8 6.37535 8C6.2095 8 6.05044 8.06588 5.93316 8.18316ZM5.93316 13.1832L3.87535 15.2418L3.06754 14.4332C3.00947 14.3751 2.94053 14.329 2.86466 14.2976C2.78879 14.2662 2.70747 14.25 2.62535 14.25C2.54323 14.25 2.46191 14.2662 2.38604 14.2976C2.31017 14.329 2.24123 14.3751 2.18316 14.4332C2.12509 14.4912 2.07903 14.5602 2.0476 14.636C2.01618 14.7119 2 14.7932 2 14.8753C2 14.9575 2.01618 15.0388 2.0476 15.1147C2.07903 15.1905 2.12509 15.2595 2.18316 15.3175L3.43316 16.5675C3.49121 16.6256 3.56014 16.6717 3.63601 16.7032C3.71188 16.7347 3.79321 16.7508 3.87535 16.7508C3.95748 16.7508 4.03881 16.7347 4.11469 16.7032C4.19056 16.6717 4.25949 16.6256 4.31753 16.5675L6.81754 14.0675C6.93481 13.9503 7.00069 13.7912 7.00069 13.6253C7.00069 13.4595 6.93481 13.3004 6.81754 13.1832C6.70026 13.0659 6.5412 13 6.37535 13C6.2095 13 6.05044 13.0659 5.93316 13.1832Z" fill="#6E6E6C"/>
</g>
</svg>
