<svg width="37" height="36" viewBox="0 0 37 36" fill="none" xmlns="http://www.w3.org/2000/svg">
<g clip-path="url(#clip0_372_2415)">
<path d="M23.1888 16.2899C23.1888 13.7549 21.1326 11.7 18.5961 11.7C16.0596 11.7 14.0034 13.7549 14.0034 16.2899C14.0034 21.6448 11.707 23.1748 11.707 23.1748H25.4852C25.4852 23.1748 23.1888 21.6448 23.1888 16.2899" stroke="white" stroke-width="2" stroke-linecap="round" stroke-linejoin="round"/>
<path d="M19.9204 26.2348C19.6466 26.7066 19.142 26.997 18.5962 26.997C18.0504 26.997 17.5458 26.7066 17.272 26.2348" stroke="white" stroke-width="2" stroke-linecap="round" stroke-linejoin="round"/>
<ellipse cx="26.1158" cy="9.9001" rx="6.30382" ry="6.3" fill="#E11D48"/>
<path d="M24.9521 12V11.1136L27.0231 9.19602C27.1992 9.02557 27.3469 8.87216 27.4663 8.7358C27.5875 8.59943 27.6793 8.46591 27.7418 8.33523C27.8043 8.20265 27.8356 8.05966 27.8356 7.90625C27.8356 7.7358 27.7968 7.58902 27.7191 7.46591C27.6415 7.34091 27.5354 7.24527 27.4009 7.17898C27.2665 7.1108 27.114 7.0767 26.9435 7.0767C26.7655 7.0767 26.6102 7.11269 26.4776 7.18466C26.3451 7.25663 26.2428 7.35985 26.1708 7.49432C26.0988 7.62879 26.0629 7.78883 26.0629 7.97443H24.8952C24.8952 7.59375 24.9814 7.26326 25.1538 6.98295C25.3261 6.70265 25.5676 6.4858 25.8782 6.33239C26.1888 6.17898 26.5468 6.10227 26.9521 6.10227C27.3687 6.10227 27.7314 6.17614 28.0401 6.32386C28.3507 6.4697 28.5922 6.67235 28.7646 6.93182C28.9369 7.19129 29.0231 7.48864 29.0231 7.82386C29.0231 8.04356 28.9795 8.26042 28.8924 8.47443C28.8072 8.68845 28.6547 8.92614 28.435 9.1875C28.2153 9.44697 27.9057 9.75852 27.506 10.1222L26.6566 10.9545V10.9943H29.0998V12H24.9521Z" fill="white"/>
</g>
<defs>
<clipPath id="clip0_372_2415">
<rect width="36.0218" height="36" fill="white"/>
</clipPath>
</defs>
</svg>
