<svg width="32" height="32" viewBox="0 0 32 32" fill="none" xmlns="http://www.w3.org/2000/svg">
<rect width="32" height="32" rx="8" fill="#F5F5F5"/>
<path d="M13.7501 24.8501C15.5301 24.1501 15.1401 22.2201 14.2401 21.0001C13.3501 19.7501 12.1201 18.8901 10.8801 18.0601C9.99515 17.5027 9.20516 16.8072 8.54008 16.0001C8.26008 15.6701 7.69008 15.0601 8.27008 14.9401C8.86008 14.8201 9.88008 15.4001 10.4001 15.6201C11.3101 16.0001 12.2101 16.4401 13.0501 16.9601L14.0601 15.2601C12.5001 14.2301 10.5001 13.3201 8.64008 13.0501C7.58008 12.8901 6.46008 13.1101 6.10008 14.2601C5.78008 15.2501 6.29008 16.2501 6.87008 17.0301C8.24008 18.8601 10.3701 19.7401 11.9601 21.3201C12.3001 21.6501 12.7101 22.0401 12.9101 22.5001C13.1201 22.9401 13.0701 22.9701 12.6001 22.9701C11.3601 22.9701 9.81008 22.0001 8.80008 21.3601L7.79008 23.0601C9.32008 24.0001 11.8801 25.4701 13.7501 24.8501ZM24.8401 9.25008C25.0601 9.03008 25.0601 8.67008 24.8401 8.46008L23.5401 7.16008C23.4356 7.05867 23.2957 7.00195 23.1501 7.00195C23.0045 7.00195 22.8646 7.05867 22.7601 7.16008L21.7401 8.18008L23.8201 10.2601M15.0001 14.9201V17.0001H17.0801L23.2301 10.8501L21.1501 8.77008L15.0001 14.9201Z" fill="#1565C0"/>
</svg>
