<svg width="32" height="32" viewBox="0 0 32 32" fill="none" xmlns="http://www.w3.org/2000/svg">
<rect width="32" height="32" rx="8" fill="#F5F5F5"/>
<path d="M23.7 16.9L18 22.6H15.7V20.3L21.4 14.6L23.7 16.9ZM27.1 16.1C27.1 16.4 26.8 16.7 26.5 17L24 19.5L23.1 18.6L25.7 16L25.1 15.4L24.4 16.1L22.1 13.8L24.3 11.7C24.5 11.5 24.9 11.5 25.2 11.7L26.6 13.1C26.8 13.3 26.8 13.7 26.6 14C26.4 14.2 26.2 14.4 26.2 14.6C26.2 14.8 26.4 15 26.6 15.2C26.9 15.5 27.2 15.8 27.1 16.1ZM7 24V8H14V13H19V14.5L21 12.5V12L15 6H7C5.9 6 5 6.9 5 8V24C5 25.1 5.9 26 7 26H19C20.1 26 21 25.1 21 24H7ZM15 21.1C14.8 21.1 14.6 21.2 14.5 21.2L14 19H12.5L10.4 20.7L11 18H9.5L8.5 23H10L12.9 20.4L13.5 22.7H14.5L15 22.6V21.1Z" fill="#FF234B"/>
</svg>
