<svg width="20" height="20" viewBox="0 0 20 20" fill="none" xmlns="http://www.w3.org/2000/svg">
<path fill-rule="evenodd" clip-rule="evenodd" d="M16.0814 3.8419L10.3601 0.905296C10.1094 0.79471 9.79211 0.810219 9.52945 0.963286L3.9508 3.82504L3.8528 3.88775C3.7288 3.97541 3.63946 4.07588 3.5728 4.19321L3.5548 4.22557C3.45213 4.34425 3.38946 4.49934 3.38946 4.66927V8.7151L3.39413 8.79399C3.4142 8.96466 3.49794 9.12113 3.62824 9.23144C3.75854 9.34175 3.92557 9.39757 4.0952 9.3875C4.26483 9.37743 4.42425 9.30222 4.5409 9.17725C4.65754 9.05227 4.72261 8.88697 4.72279 8.7151L4.72213 5.91673C4.8208 5.96355 4.91992 6.0094 5.01946 6.05429L6.13946 6.53103C5.87146 7.11363 5.72079 7.76635 5.72079 8.45482C5.7181 9.14851 5.87392 9.83344 6.17609 10.4562C6.47827 11.0789 6.91862 11.6226 7.46279 12.0448C4.95413 13.1372 3.3268 15.6692 3.33413 18.4696C3.33413 18.5029 3.33635 18.5356 3.34065 18.5676C3.33586 18.5999 3.33337 18.6329 3.33337 18.6665C3.33337 19.0347 3.63185 19.3332 4.00004 19.3332H16C16.3682 19.3332 16.6667 19.0347 16.6667 18.6665C16.6667 18.6347 16.6645 18.6035 16.6602 18.5728C16.665 18.5392 16.6674 18.5047 16.6674 18.4696C16.6721 15.6692 15.0441 13.1385 12.5354 12.0448C13.0802 11.623 13.521 11.0794 13.8236 10.4566C14.1261 9.83385 14.2821 9.14872 14.2794 8.45482C14.2794 7.76635 14.1281 7.11363 13.8594 6.53103L14.9828 6.05227C15.4014 5.86414 15.7614 5.6841 16.0814 5.49731C16.2251 5.41348 16.3445 5.29285 16.4275 5.14755C16.5105 5.00225 16.5542 4.83741 16.5542 4.66961C16.5542 4.5018 16.5105 4.33696 16.4275 4.19166C16.3445 4.04636 16.2251 3.92573 16.0814 3.8419ZM15.3106 17.9998C15.0811 15.1556 12.787 12.9153 10.0008 12.9153C7.21448 12.9153 4.92046 15.155 4.69099 17.9998H15.3106ZM7.05679 8.45482C7.05679 6.76366 8.37745 5.38808 10.0001 5.38808H9.99945C11.6214 5.38808 12.9428 6.76433 12.9428 8.45482C12.9428 10.1453 11.6214 11.5216 9.99945 11.5216C8.37745 11.5216 7.05679 10.1453 7.05679 8.45482ZM5.24146 4.67264L10.0008 2.23165L14.7561 4.67331L14.4401 4.81964L13.1414 5.37257L13.1041 5.38943C12.3234 4.53104 11.2201 3.99496 9.99878 3.99496C8.77678 3.99496 7.67212 4.53171 6.89212 5.39077L6.74546 5.32672L5.59479 4.8365L5.34146 4.72119L5.24146 4.67264Z" fill="black"/>
</svg>
