<svg width="18" height="20" viewBox="0 0 18 20" fill="none" xmlns="http://www.w3.org/2000/svg">
<path d="M11.0757 15.2706L5.96571 12.4836C5.47521 12.9705 4.85153 13.3013 4.1733 13.4342C3.49508 13.5672 2.79267 13.4964 2.15464 13.2307C1.5166 12.9651 0.971504 12.5164 0.588062 11.9414C0.204619 11.3664 0 10.6908 0 9.99962C0 9.30849 0.204619 8.63283 0.588062 8.05782C0.971504 7.4828 1.5166 7.03419 2.15464 6.76852C2.79267 6.50286 3.49508 6.43204 4.1733 6.56499C4.85153 6.69795 5.47521 7.02873 5.96571 7.51562L11.0757 4.72862C10.9005 3.90636 11.027 3.04848 11.4323 2.31188C11.8376 1.57527 12.4945 1.00915 13.2828 0.717056C14.0712 0.424958 14.9383 0.426396 15.7257 0.721109C16.5131 1.01582 17.1681 1.58411 17.5709 2.32206C17.9737 3.06001 18.0975 3.9183 17.9195 4.73998C17.7415 5.56165 17.2737 6.29181 16.6016 6.79692C15.9295 7.30204 15.0981 7.54835 14.2593 7.49082C13.4206 7.43329 12.6305 7.07577 12.0337 6.48362L6.92371 9.27062C7.02592 9.75091 7.02592 10.2473 6.92371 10.7276L12.0337 13.5156C12.6305 12.9235 13.4206 12.566 14.2593 12.5084C15.0981 12.4509 15.9295 12.6972 16.6016 13.2023C17.2737 13.7074 17.7415 14.4376 17.9195 15.2593C18.0975 16.0809 17.9737 16.9392 17.5709 17.6772C17.1681 18.4151 16.5131 18.9834 15.7257 19.2781C14.9383 19.5728 14.0712 19.5743 13.2828 19.2822C12.4945 18.9901 11.8376 18.424 11.4323 17.6874C11.027 16.9508 10.9005 16.0929 11.0757 15.2706Z" fill="#2885DA"/>
</svg>
